<svg width="17" height="17" viewBox="0 0 17 17" fill="none" xmlns="http://www.w3.org/2000/svg">
<path d="M8.5 0C10.7543 0 12.9163 0.895533 14.5104 2.48959C16.1045 4.08365 17 6.24566 17 8.5C17 10.7543 16.1045 12.9163 14.5104 14.5104C12.9163 16.1045 10.7543 17 8.5 17C6.24566 17 4.08365 16.1045 2.48959 14.5104C0.895533 12.9163 0 10.7543 0 8.5C0 6.24566 0.895533 4.08365 2.48959 2.48959C4.08365 0.895533 6.24566 0 8.5 0ZM8.5 7.46907L6.52557 5.49464C6.38886 5.35793 6.20344 5.28113 6.01011 5.28113C5.81677 5.28113 5.63135 5.35793 5.49464 5.49464C5.35793 5.63135 5.28113 5.81677 5.28113 6.01011C5.28113 6.20344 5.35793 6.38886 5.49464 6.52557L7.46907 8.5L5.49464 10.4744C5.42695 10.5421 5.37326 10.6225 5.33662 10.7109C5.29999 10.7994 5.28113 10.8942 5.28113 10.9899C5.28113 11.0856 5.29999 11.1804 5.33662 11.2689C5.37326 11.3573 5.42695 11.4377 5.49464 11.5054C5.56234 11.573 5.6427 11.6267 5.73114 11.6634C5.81958 11.7 5.91438 11.7189 6.01011 11.7189C6.10584 11.7189 6.20063 11.7 6.28907 11.6634C6.37752 11.6267 6.45788 11.573 6.52557 11.5054L8.5 9.53093L10.4744 11.5054C10.5421 11.573 10.6225 11.6267 10.7109 11.6634C10.7994 11.7 10.8942 11.7189 10.9899 11.7189C11.0856 11.7189 11.1804 11.7 11.2689 11.6634C11.3573 11.6267 11.4377 11.573 11.5054 11.5054C11.573 11.4377 11.6267 11.3573 11.6634 11.2689C11.7 11.1804 11.7189 11.0856 11.7189 10.9899C11.7189 10.8942 11.7 10.7994 11.6634 10.7109C11.6267 10.6225 11.573 10.5421 11.5054 10.4744L9.53093 8.5L11.5054 6.52557C11.573 6.45788 11.6267 6.37752 11.6634 6.28907C11.7 6.20063 11.7189 6.10584 11.7189 6.01011C11.7189 5.91438 11.7 5.81958 11.6634 5.73114C11.6267 5.6427 11.573 5.56234 11.5054 5.49464C11.4377 5.42695 11.3573 5.37326 11.2689 5.33662C11.1804 5.29999 11.0856 5.28113 10.9899 5.28113C10.8942 5.28113 10.7994 5.29999 10.7109 5.33662C10.6225 5.37326 10.5421 5.42695 10.4744 5.49464L8.5 7.46907Z" fill="#C4C4C4"/>
</svg>
