<svg width="16" height="15" viewBox="0 0 16 15" fill="none" xmlns="http://www.w3.org/2000/svg">
<path d="M14.9436 4.35355C15.1377 4.15829 15.1359 3.84171 14.9396 3.64645L11.7397 0.464522C11.5433 0.269263 11.2268 0.269263 11.0326 0.464522C10.8384 0.659781 10.8402 0.976358 11.0366 1.17162L13.8809 4L11.0684 6.82838C10.8742 7.02364 10.876 7.34022 11.0724 7.53548C11.2687 7.73074 11.5853 7.73074 11.7795 7.53548L14.9436 4.35355ZM1.50721 4.49999L14.5908 4.49999L14.5852 3.50001L1.50158 3.50001L1.50721 4.49999Z" fill="white"/>
<path d="M0.644458 10.1048C0.450294 10.3001 0.452075 10.6167 0.648436 10.8119L3.84832 13.9939C4.04468 14.1891 4.36126 14.1891 4.55542 13.9939C4.74959 13.7986 4.74781 13.482 4.55145 13.2868L1.70711 10.4584L4.51962 7.62999C4.71379 7.43473 4.712 7.11816 4.51564 6.9229C4.31928 6.72764 4.0027 6.72764 3.80854 6.9229L0.644458 10.1048ZM1.00281 10.9584L14.9888 10.9584L14.9831 9.95838L0.997187 9.95838L1.00281 10.9584Z" fill="white"/>
</svg>
