<svg width="53" height="37" viewBox="0 0 53 37" fill="none" xmlns="http://www.w3.org/2000/svg">
<mask id="path-1-inside-1_201_22" fill="white">
<path fill-rule="evenodd" clip-rule="evenodd" d="M44.5175 14.4426C44.5305 14.1979 44.537 13.9516 44.537 13.7037C44.537 6.13536 38.4017 0 30.8333 0C25.7164 0 21.2544 2.80455 18.9008 6.96037C17.7285 6.44981 16.4344 6.16667 15.0741 6.16667C9.87455 6.16667 5.64123 10.3035 5.4859 15.4654C2.1916 17.5231 0 21.1815 0 25.3519C0 31.785 5.21505 37 11.6482 37H40.4259C46.859 37 52.0741 31.785 52.0741 25.3519C52.0741 20.3585 48.9322 16.0991 44.5175 14.4426Z"/>
</mask>
<path d="M44.5175 14.4426L42.5203 14.3365L42.4425 15.8002L43.8148 16.3151L44.5175 14.4426ZM18.9008 6.96037L18.1022 8.79402L19.7535 9.51319L20.6411 7.94596L18.9008 6.96037ZM5.4859 15.4654L6.54543 17.1617L7.45281 16.5949L7.48499 15.5255L5.4859 15.4654ZM42.537 13.7037C42.537 13.9162 42.5314 14.1271 42.5203 14.3365L46.5146 14.5487C46.5295 14.2687 46.537 13.987 46.537 13.7037H42.537ZM30.8333 2C37.2971 2 42.537 7.23993 42.537 13.7037H46.537C46.537 5.03079 39.5062 -2 30.8333 -2V2ZM20.6411 7.94596C22.6542 4.39147 26.4658 2 30.8333 2V-2C24.967 -2 19.8547 1.21763 17.1605 5.97478L20.6411 7.94596ZM15.0741 8.16667C16.1544 8.16667 17.1771 8.39111 18.1022 8.79402L19.6994 5.12672C18.2799 4.5085 16.7143 4.16667 15.0741 4.16667V8.16667ZM7.48499 15.5255C7.6079 11.441 10.959 8.16667 15.0741 8.16667V4.16667C8.79012 4.16667 3.67455 9.16596 3.4868 15.4052L7.48499 15.5255ZM2 25.3519C2 21.8998 3.81158 18.8693 6.54543 17.1617L4.42636 13.7691C0.571625 16.1768 -2 20.4632 -2 25.3519H2ZM11.6482 35C6.31962 35 2 30.6804 2 25.3519H-2C-2 32.8895 4.11048 39 11.6482 39V35ZM40.4259 35H11.6482V39H40.4259V35ZM50.0741 25.3519C50.0741 30.6804 45.7544 35 40.4259 35V39C47.9636 39 54.0741 32.8895 54.0741 25.3519H50.0741ZM43.8148 16.3151C47.4747 17.6884 50.0741 21.2191 50.0741 25.3519H54.0741C54.0741 19.498 50.3896 14.5098 45.2201 12.5701L43.8148 16.3151Z" fill="#EC2A58" mask="url(#path-1-inside-1_201_22)"/>
<path d="M22 18L31 27" stroke="#EC2A58" stroke-width="2" stroke-linecap="round"/>
<path d="M22 27L31 18" stroke="#EC2A58" stroke-width="2" stroke-linecap="round"/>
</svg>
