<svg width="45" height="45" viewBox="0 0 45 45" fill="none" xmlns="http://www.w3.org/2000/svg">
<path d="M29.38 1C27.1363 1.00006 24.9227 1.51653 22.9106 2.50942C20.8986 3.50232 19.1421 4.94499 17.7771 6.72573C16.4121 8.50647 15.4753 10.5775 15.0392 12.7784C14.6031 14.9793 14.6794 17.2511 15.2622 19.4178L1 33.68V44H11.32V38.84H16.48V33.68H21.64L25.596 29.724C26.831 30.0611 28.1003 30.2331 29.38 30.24C33.2575 30.24 36.9761 28.6997 39.7179 25.9579C42.4597 23.2161 44 19.4975 44 15.62C44 11.7425 42.4597 8.02388 39.7179 5.2821C36.9761 2.54032 33.2575 1 29.38 1V1Z" stroke="#4EE45D" stroke-width="2" stroke-linecap="round" stroke-linejoin="round"/>
<path d="M31.9602 14.76C32.9102 14.76 33.6802 13.99 33.6802 13.04C33.6802 12.0901 32.9102 11.32 31.9602 11.32C31.0103 11.32 30.2402 12.0901 30.2402 13.04C30.2402 13.99 31.0103 14.76 31.9602 14.76Z" fill="#4EE45D" stroke="#4EE45D" stroke-width="2" stroke-linecap="round" stroke-linejoin="round"/>
</svg>
