<svg width="99" height="31" viewBox="0 0 99 31" fill="none" xmlns="http://www.w3.org/2000/svg">
<path d="M15 14.1842C11.1311 14.1842 8 11.1039 8 7.3421C8 3.58028 11.1311 0.5 15 0.5C18.8689 0.5 22 3.58028 22 7.3421C22 11.1039 18.8689 14.1842 15 14.1842ZM29.5 29.3684V30.5H28.3333H0.5V29.3684C0.5 23.3582 5.49944 18.4474 11.6667 18.4474H18.3333C24.4989 18.4474 29.5 23.3583 29.5 29.3684Z" stroke="#BCBCBC"/>
<path d="M84 14.1842C80.1311 14.1842 77 11.1039 77 7.3421C77 3.58028 80.1311 0.5 84 0.5C87.8689 0.5 91 3.58028 91 7.3421C91 11.1039 87.8689 14.1842 84 14.1842ZM98.5 29.3684V30.5H97.3333H69.5V29.3684C69.5 23.3582 74.4994 18.4474 80.6667 18.4474H87.3333C93.4989 18.4474 98.5 23.3583 98.5 29.3684Z" stroke="#BCBCBC"/>
<path d="M64.3536 21.3536C64.5488 21.1583 64.5488 20.8417 64.3536 20.6464L61.1716 17.4645C60.9763 17.2692 60.6597 17.2692 60.4645 17.4645C60.2692 17.6597 60.2692 17.9763 60.4645 18.1716L63.2929 21L60.4645 23.8284C60.2692 24.0237 60.2692 24.3403 60.4645 24.5355C60.6597 24.7308 60.9763 24.7308 61.1716 24.5355L64.3536 21.3536ZM35 21.5H64V20.5H35V21.5Z" fill="#BCBCBC"/>
<path d="M34.6464 10.6464C34.4512 10.8417 34.4512 11.1583 34.6464 11.3536L37.8284 14.5355C38.0237 14.7308 38.3403 14.7308 38.5355 14.5355C38.7308 14.3403 38.7308 14.0237 38.5355 13.8284L35.7071 11L38.5355 8.17157C38.7308 7.97631 38.7308 7.65973 38.5355 7.46447C38.3403 7.2692 38.0237 7.2692 37.8284 7.46447L34.6464 10.6464ZM35 11.5L66 11.5V10.5L35 10.5V11.5Z" fill="#BCBCBC"/>
</svg>
