<svg width="45" height="54" viewBox="0 0 45 54" fill="none" xmlns="http://www.w3.org/2000/svg">
<path d="M22.5 25.4737C20.4308 25.4737 18.75 23.7935 18.75 21.7368C18.75 19.6802 20.4308 18 22.5 18C24.5692 18 26.25 19.6802 26.25 21.7368C26.25 23.7935 24.5692 25.4737 22.5 25.4737ZM31 35.9474V36H30.9444H14V35.9474C14 32.4401 16.8642 29.5789 20.3889 29.5789H24.6111C28.1348 29.5789 31 32.4402 31 35.9474Z" stroke="#4EE45D" stroke-width="2"/>
<path d="M21.6195 1.36722L21.6186 1.36811C15.8662 7.12019 9.43819 10.0036 2.25 10.0036C1.91846 10.0036 1.60052 10.1353 1.3661 10.3697C1.13168 10.6041 1 10.922 1 11.2535V24.7574C1 31.8242 2.7996 37.6858 6.29501 42.3546C9.79339 47.0273 15.0512 50.586 22.105 52.9357L22.1056 52.9359C22.3616 53.0214 22.6384 53.0214 22.8944 52.9359L22.8951 52.9357C29.9511 50.586 35.2089 47.0273 38.7066 42.3547C42.2015 37.686 44 31.8243 44 24.7574V11.2535C44 10.922 43.8683 10.6041 43.6339 10.3697C43.3995 10.1353 43.0815 10.0036 42.75 10.0036C35.5579 10.0036 29.1293 7.12517 23.3895 1.36722H21.6195ZM21.6195 1.36722C21.7356 1.25082 21.8735 1.15847 22.0254 1.09545M21.6195 1.36722L22.0254 1.09545M22.0254 1.09545C22.1773 1.03244 22.3401 1 22.5045 1M22.0254 1.09545L22.5045 1M22.5045 1C22.6689 1 22.8317 1.03244 22.9836 1.09545M22.5045 1L22.9836 1.09545M22.9836 1.09545C23.1354 1.15842 23.2732 1.25069 23.3893 1.36697L22.9836 1.09545Z" stroke="#4EE45D" stroke-width="2"/>
</svg>
