<svg width="18" height="11" viewBox="0 0 18 11" fill="none" xmlns="http://www.w3.org/2000/svg">
<path d="M3.64282 10.6984C3.83615 10.8938 4.15273 10.8942 4.34993 10.6991L7.56337 7.52055C7.76056 7.3255 7.76369 7.00893 7.57036 6.81348C7.37703 6.61803 7.06045 6.6177 6.86326 6.81275L4.00686 9.63814L1.20641 6.80694C1.01307 6.61149 0.696492 6.61117 0.4993 6.80622C0.302107 7.00127 0.298976 7.31784 0.492307 7.51329L3.64282 10.6984ZM3.59229 0.999487L3.49987 10.3447L4.49987 10.3457L4.59228 1.00051L3.59229 0.999487Z" fill="#4EE45D"/>
<path d="M14.4493 0.657142C14.256 0.461689 13.9394 0.461364 13.7422 0.656416L10.5288 3.83497C10.3316 4.03003 10.3285 4.34659 10.5218 4.54205C10.7151 4.7375 11.0317 4.73782 11.2289 4.54277L14.0853 1.71739L16.8857 4.54858C17.0791 4.74403 17.3957 4.74436 17.5929 4.54931C17.79 4.35425 17.7932 4.03769 17.5998 3.84223L14.4493 0.657142ZM13.5923 1.0098L13.4935 10.9995L14.4935 11.0005L14.5923 1.01083L13.5923 1.0098Z" fill="#BCBCBC"/>
</svg>
