<svg width="38" height="41" viewBox="0 0 38 41" fill="none" xmlns="http://www.w3.org/2000/svg">
<path d="M0.84 37V31.4H3.024C3.51467 31.4 3.93333 31.4773 4.28 31.632C4.62667 31.7867 4.89333 32.0107 5.08 32.304C5.26667 32.5973 5.36 32.9467 5.36 33.352C5.36 33.7573 5.26667 34.1067 5.08 34.4C4.89333 34.688 4.62667 34.9093 4.28 35.064C3.93333 35.2187 3.51467 35.296 3.024 35.296H1.28L1.64 34.928V37H0.84ZM4.584 37L3.16 34.968H4.016L5.456 37H4.584ZM1.64 35.008L1.28 34.616H3C3.512 34.616 3.89867 34.5067 4.16 34.288C4.42667 34.064 4.56 33.752 4.56 33.352C4.56 32.952 4.42667 32.6427 4.16 32.424C3.89867 32.2053 3.512 32.096 3 32.096H1.28L1.64 31.696V35.008ZM8.4285 37.048C7.97517 37.048 7.57517 36.9547 7.2285 36.768C6.88717 36.5813 6.6205 36.3253 6.4285 36C6.24183 35.6747 6.1485 35.3013 6.1485 34.88C6.1485 34.4587 6.23917 34.0853 6.4205 33.76C6.60717 33.4347 6.8605 33.1813 7.1805 33C7.50583 32.8133 7.87117 32.72 8.2765 32.72C8.68717 32.72 9.04983 32.8107 9.3645 32.992C9.67917 33.1733 9.9245 33.4293 10.1005 33.76C10.2818 34.0853 10.3725 34.4667 10.3725 34.904C10.3725 34.936 10.3698 34.9733 10.3645 35.016C10.3645 35.0587 10.3618 35.0987 10.3565 35.136H6.7485V34.584H9.9565L9.6445 34.776C9.64983 34.504 9.59383 34.2613 9.4765 34.048C9.35917 33.8347 9.1965 33.6693 8.9885 33.552C8.78583 33.4293 8.5485 33.368 8.2765 33.368C8.00983 33.368 7.7725 33.4293 7.5645 33.552C7.3565 33.6693 7.19383 33.8373 7.0765 34.056C6.95917 34.2693 6.9005 34.5147 6.9005 34.792V34.92C6.9005 35.2027 6.9645 35.456 7.0925 35.68C7.22583 35.8987 7.40983 36.0693 7.6445 36.192C7.87917 36.3147 8.1485 36.376 8.4525 36.376C8.70317 36.376 8.92983 36.3333 9.1325 36.248C9.3405 36.1627 9.52183 36.0347 9.6765 35.864L10.1005 36.36C9.9085 36.584 9.6685 36.7547 9.3805 36.872C9.09783 36.9893 8.7805 37.048 8.4285 37.048ZM13.7029 32.72C14.0496 32.72 14.3536 32.7867 14.6149 32.92C14.8816 33.0533 15.0896 33.256 15.2389 33.528C15.3883 33.8 15.4629 34.144 15.4629 34.56V37H14.6949V34.648C14.6949 34.2373 14.5936 33.928 14.3909 33.72C14.1936 33.512 13.9136 33.408 13.5509 33.408C13.2789 33.408 13.0416 33.4613 12.8389 33.568C12.6363 33.6747 12.4789 33.832 12.3669 34.04C12.2603 34.248 12.2069 34.5067 12.2069 34.816V37H11.4389V32.76H12.1749V33.904L12.0549 33.6C12.1936 33.3227 12.4069 33.1067 12.6949 32.952C12.9829 32.7973 13.3189 32.72 13.7029 32.72ZM19.5163 37V36.104L19.4763 35.936V34.408C19.4763 34.0827 19.3803 33.832 19.1883 33.656C19.0016 33.4747 18.7189 33.384 18.3403 33.384C18.0896 33.384 17.8443 33.4267 17.6043 33.512C17.3643 33.592 17.1616 33.7013 16.9963 33.84L16.6763 33.264C16.8949 33.088 17.1563 32.9547 17.4603 32.864C17.7696 32.768 18.0923 32.72 18.4283 32.72C19.0096 32.72 19.4576 32.8613 19.7723 33.144C20.0869 33.4267 20.2443 33.8587 20.2443 34.44V37H19.5163ZM18.1243 37.048C17.8096 37.048 17.5323 36.9947 17.2923 36.888C17.0576 36.7813 16.8763 36.6347 16.7483 36.448C16.6203 36.256 16.5563 36.04 16.5563 35.8C16.5563 35.5707 16.6096 35.3627 16.7163 35.176C16.8283 34.9893 17.0069 34.84 17.2523 34.728C17.5029 34.616 17.8389 34.56 18.2603 34.56H19.6043V35.112H18.2923C17.9083 35.112 17.6496 35.176 17.5163 35.304C17.3829 35.432 17.3163 35.5867 17.3163 35.768C17.3163 35.976 17.3989 36.144 17.5643 36.272C17.7296 36.3947 17.9589 36.456 18.2523 36.456C18.5403 36.456 18.7909 36.392 19.0043 36.264C19.2229 36.136 19.3803 35.9493 19.4763 35.704L19.6283 36.232C19.5269 36.4827 19.3483 36.6827 19.0923 36.832C18.8363 36.976 18.5136 37.048 18.1243 37.048ZM26.9695 32.72C27.3108 32.72 27.6122 32.7867 27.8735 32.92C28.1348 33.0533 28.3375 33.256 28.4815 33.528C28.6308 33.8 28.7055 34.144 28.7055 34.56V37H27.9375V34.648C27.9375 34.2373 27.8415 33.928 27.6495 33.72C27.4575 33.512 27.1882 33.408 26.8415 33.408C26.5855 33.408 26.3615 33.4613 26.1695 33.568C25.9775 33.6747 25.8282 33.832 25.7215 34.04C25.6202 34.248 25.5695 34.5067 25.5695 34.816V37H24.8015V34.648C24.8015 34.2373 24.7055 33.928 24.5135 33.72C24.3268 33.512 24.0575 33.408 23.7055 33.408C23.4548 33.408 23.2335 33.4613 23.0415 33.568C22.8495 33.6747 22.7002 33.832 22.5935 34.04C22.4868 34.248 22.4335 34.5067 22.4335 34.816V37H21.6655V32.76H22.4015V33.888L22.2815 33.6C22.4148 33.3227 22.6202 33.1067 22.8975 32.952C23.1748 32.7973 23.4975 32.72 23.8655 32.72C24.2708 32.72 24.6202 32.8213 24.9135 33.024C25.2068 33.2213 25.3988 33.5227 25.4895 33.928L25.1775 33.8C25.3055 33.4747 25.5295 33.2133 25.8495 33.016C26.1695 32.8187 26.5428 32.72 26.9695 32.72ZM32.0066 37.048C31.5533 37.048 31.1533 36.9547 30.8066 36.768C30.4653 36.5813 30.1986 36.3253 30.0066 36C29.82 35.6747 29.7266 35.3013 29.7266 34.88C29.7266 34.4587 29.8173 34.0853 29.9986 33.76C30.1853 33.4347 30.4386 33.1813 30.7586 33C31.084 32.8133 31.4493 32.72 31.8546 32.72C32.2653 32.72 32.628 32.8107 32.9426 32.992C33.2573 33.1733 33.5026 33.4293 33.6786 33.76C33.86 34.0853 33.9506 34.4667 33.9506 34.904C33.9506 34.936 33.948 34.9733 33.9426 35.016C33.9426 35.0587 33.94 35.0987 33.9346 35.136H30.3266V34.584H33.5346L33.2226 34.776C33.228 34.504 33.172 34.2613 33.0546 34.048C32.9373 33.8347 32.7746 33.6693 32.5666 33.552C32.364 33.4293 32.1266 33.368 31.8546 33.368C31.588 33.368 31.3506 33.4293 31.1426 33.552C30.9346 33.6693 30.772 33.8373 30.6546 34.056C30.5373 34.2693 30.4786 34.5147 30.4786 34.792V34.92C30.4786 35.2027 30.5426 35.456 30.6706 35.68C30.804 35.8987 30.988 36.0693 31.2226 36.192C31.4573 36.3147 31.7266 36.376 32.0306 36.376C32.2813 36.376 32.508 36.3333 32.7106 36.248C32.9186 36.1627 33.1 36.0347 33.2546 35.864L33.6786 36.36C33.4866 36.584 33.2466 36.7547 32.9586 36.872C32.676 36.9893 32.3586 37.048 32.0066 37.048Z" fill="#EC2A58"/>
<path d="M23.9175 3.47287C23.4443 3.47402 22.9759 3.56886 22.5395 3.75193C22.1031 3.93499 21.7072 4.20266 21.3748 4.53949L7.53841 18.375L7.48416 18.6489L6.52691 23.4614L6.25391 24.7459L7.53928 24.4729L12.3518 23.5156L12.6248 23.4605L26.4612 9.625C26.7989 9.29313 27.0671 8.89732 27.2502 8.46068C27.4333 8.02403 27.5276 7.55529 27.5276 7.08181C27.5276 6.60833 27.4333 6.13958 27.2502 5.70294C27.0671 5.26629 26.7989 4.87049 26.4612 4.53862C26.1285 4.20184 25.7325 3.93427 25.2959 3.75135C24.8594 3.56843 24.3909 3.47379 23.9175 3.47287ZM23.9175 5.14062C24.3585 5.14062 24.803 5.34187 25.23 5.76974C26.0814 6.62024 26.0814 7.54337 25.23 8.39474L24.6018 8.99587L22.003 6.39799L22.605 5.76974C23.0329 5.34187 23.4765 5.14062 23.9175 5.14062ZM20.7737 7.62912L23.3707 10.227L12.7893 20.8075C12.218 19.6898 11.3086 18.781 10.1905 18.2105L20.7737 7.62912ZM9.07053 19.6332C9.58839 19.8416 10.0588 20.1524 10.4535 20.5471C10.8482 20.9419 11.1591 21.4123 11.3674 21.9301L8.49566 22.5041L9.07053 19.6332Z" fill="#EC2A58"/>
</svg>
