<svg width="41" height="41" viewBox="0 0 41 41" fill="none" xmlns="http://www.w3.org/2000/svg">
<circle cx="20.5" cy="20.5" r="20" stroke="#C7C7C7"/>
<path d="M10.6464 16.6464C10.4512 16.8417 10.4512 17.1583 10.6464 17.3536L13.8284 20.5355C14.0237 20.7308 14.3403 20.7308 14.5355 20.5355C14.7308 20.3403 14.7308 20.0237 14.5355 19.8284L11.7071 17L14.5355 14.1716C14.7308 13.9763 14.7308 13.6597 14.5355 13.4645C14.3403 13.2692 14.0237 13.2692 13.8284 13.4645L10.6464 16.6464ZM15.6216 27.5H25V26.5H15.6216V27.5ZM25 16.5H11V17.5H25V16.5ZM30.5 22C30.5 18.9624 28.0376 16.5 25 16.5V17.5C27.4853 17.5 29.5 19.5147 29.5 22H30.5ZM25 27.5C28.0376 27.5 30.5 25.0376 30.5 22H29.5C29.5 24.4853 27.4853 26.5 25 26.5V27.5Z" fill="#C7C7C7"/>
</svg>
