<svg width="17" height="17" viewBox="0 0 17 17" fill="none" xmlns="http://www.w3.org/2000/svg">
<path d="M2.10437 0.395569C1.63249 -0.0763143 0.867413 -0.0763144 0.395529 0.395569C-0.0763543 0.867452 -0.0763546 1.63253 0.395529 2.10441L6.79105 8.49994L0.395417 14.8956C-0.076467 15.3675 -0.076467 16.1325 0.395417 16.6044C0.8673 17.0763 1.63237 17.0763 2.10426 16.6044L8.49989 10.2088L14.8955 16.6044C15.3674 17.0763 16.1325 17.0763 16.6044 16.6044C17.0763 16.1325 17.0763 15.3675 16.6044 14.8956L10.2087 8.49994L16.6043 2.10441C17.0761 1.63253 17.0761 0.867454 16.6043 0.395571C16.1324 -0.0763129 15.3673 -0.0763124 14.8954 0.395571L8.49989 6.79109L2.10437 0.395569Z" fill="black"/>
</svg>
