<svg width="43" height="41" viewBox="0 0 43 41" fill="none" xmlns="http://www.w3.org/2000/svg">
<rect x="1" y="1" width="41" height="39" rx="8" stroke="black" stroke-width="2"/>
<path d="M26 16.7V15.75C26 13.1309 23.757 11 21 11C18.243 11 16 13.1309 16 15.75V18.6H15C13.897 18.6 13 19.4521 13 20.5V28.1C13 29.1479 13.897 30 15 30H27C28.103 30 29 29.1479 29 28.1V20.5C29 19.4521 28.103 18.6 27 18.6H18V15.75C18 14.1787 19.346 12.9 21 12.9C22.654 12.9 24 14.1787 24 15.75V16.7H26Z" fill="black"/>
</svg>
