<svg width="22" height="23" viewBox="0 0 22 23" fill="none" xmlns="http://www.w3.org/2000/svg">
<path d="M14.2 1.5C13.1564 1.50003 12.1268 1.74025 11.191 2.20206C10.2552 2.66387 9.43817 3.33488 8.80329 4.16313C8.16841 4.99138 7.73268 5.95464 7.52985 6.97833C7.32701 8.00201 7.36251 9.05864 7.6336 10.0664L1 16.7V21.5H5.8V19.1H8.2V16.7H10.6L12.44 14.86C13.0144 15.0168 13.6048 15.0968 14.2 15.1C16.0035 15.1 17.7331 14.3836 19.0083 13.1083C20.2836 11.8331 21 10.1035 21 8.3C21 6.49653 20.2836 4.76692 19.0083 3.49167C17.7331 2.21643 16.0035 1.5 14.2 1.5V1.5Z" stroke="#EC2A58" stroke-width="2" stroke-linecap="round" stroke-linejoin="round"/>
<path d="M15.4 7.90002C15.8418 7.90002 16.2 7.54185 16.2 7.10002C16.2 6.65819 15.8418 6.30002 15.4 6.30002C14.9581 6.30002 14.6 6.65819 14.6 7.10002C14.6 7.54185 14.9581 7.90002 15.4 7.90002Z" fill="#EC2A58" stroke="#EC2A58" stroke-width="2" stroke-linecap="round" stroke-linejoin="round"/>
</svg>
