<svg width="16" height="19" viewBox="0 0 16 19" fill="none" xmlns="http://www.w3.org/2000/svg">
<path d="M8.00033 0.75C3.11449 4.73125 0.666992 8.17 0.666992 11.075C0.666992 15.4325 4.15033 18.25 8.00033 18.25C11.8503 18.25 15.3337 15.4325 15.3337 11.075C15.3337 8.17 12.8862 4.73125 8.00033 0.75ZM4.17783 11.25C4.51699 11.25 4.79199 11.4775 4.85616 11.7925C5.23199 13.735 6.94616 14.4 8.19283 14.3037C8.58699 14.2862 8.91699 14.5837 8.91699 14.96C8.91699 15.31 8.62366 15.5987 8.25699 15.6162C6.30449 15.73 4.02199 14.6625 3.49949 12.0112C3.48356 11.9174 3.48917 11.8214 3.51592 11.7299C3.54268 11.6384 3.58994 11.5535 3.65445 11.4811C3.71896 11.4087 3.79917 11.3505 3.88953 11.3106C3.9799 11.2707 4.07826 11.25 4.17783 11.25Z" fill="#78CEFF"/>
</svg>
