<svg width="72" height="72" viewBox="0 0 72 72" fill="none" xmlns="http://www.w3.org/2000/svg">
<path d="M36 72C28.8799 72 21.9197 69.8886 15.9995 65.9329C10.0793 61.9772 5.46511 56.3547 2.74035 49.7766C0.0155982 43.1985 -0.697322 35.9601 0.691746 28.9768C2.08081 21.9934 5.50948 15.5789 10.5442 10.5442C15.5789 5.50948 21.9934 2.08081 28.9768 0.691746C35.9601 -0.697322 43.1985 0.0155982 49.7766 2.74035C56.3547 5.46511 61.9772 10.0793 65.9329 15.9995C69.8886 21.9197 72 28.8799 72 36C72 45.5478 68.2072 54.7045 61.4558 61.4558C54.7045 68.2072 45.5478 72 36 72ZM36 5.14287C29.897 5.14287 23.9311 6.95261 18.8567 10.3432C13.7823 13.7339 9.82724 18.5531 7.49173 24.1915C5.15623 29.8299 4.54515 36.0342 5.73578 42.0199C6.92641 48.0056 9.86527 53.5038 14.1807 57.8193C18.4962 62.1347 23.9944 65.0736 29.9801 66.2642C35.9658 67.4549 42.1701 66.8438 47.8085 64.5083C53.4469 62.1728 58.2662 58.2177 61.6568 53.1433C65.0474 48.0689 66.8571 42.103 66.8571 36C66.8571 27.8162 63.6061 19.9676 57.8193 14.1807C52.0325 8.39388 44.1838 5.14287 36 5.14287Z" fill="#D9D9D9" fill-opacity="0.39"/>
<path d="M47.802 51.4286L33.4277 37.0543V12.8572H38.5706V34.92L51.4277 47.8029L47.802 51.4286Z" fill="#D9D9D9" fill-opacity="0.39"/>
</svg>
