<svg width="34" height="31" viewBox="0 0 34 31" fill="none" xmlns="http://www.w3.org/2000/svg">
<path d="M10.6438 14.4363C10.8377 14.6319 11.1543 14.6323 11.3509 14.4374L14.5554 11.26C14.752 11.0651 14.7543 10.7485 14.5604 10.5529C14.3665 10.3574 14.0499 10.3569 13.8533 10.5519L11.0049 13.3762L8.19642 10.5438C8.00254 10.3483 7.68595 10.3478 7.48931 10.5428C7.29267 10.7377 7.29044 11.0543 7.48432 11.2499L10.6438 14.4363ZM10.5923 0.999281L10.4999 14.0826L11.4999 14.084L11.5923 1.00072L10.5923 0.999281Z" fill="#C1D2FF"/>
<path d="M21.4483 0.661368C21.2545 0.46583 20.9379 0.465375 20.7412 0.660351L17.5368 3.83768C17.3401 4.03265 17.3379 4.34923 17.5318 4.54477C17.7257 4.74031 18.0422 4.74076 18.2389 4.54578L21.0873 1.72149L23.8957 4.55392C24.0896 4.74945 24.4062 4.74991 24.6028 4.55493C24.7995 4.35996 24.8017 4.04338 24.6078 3.84784L21.4483 0.661368ZM20.5923 1.01369L20.4935 14.9993L21.4935 15.0007L21.5923 1.01512L20.5923 1.01369Z" fill="#C1D2FF"/>
<path d="M0.84 27V21.4H3.024C3.51467 21.4 3.93333 21.4773 4.28 21.632C4.62667 21.7867 4.89333 22.0107 5.08 22.304C5.26667 22.5973 5.36 22.9467 5.36 23.352C5.36 23.7573 5.26667 24.1067 5.08 24.4C4.89333 24.688 4.62667 24.9093 4.28 25.064C3.93333 25.2187 3.51467 25.296 3.024 25.296H1.28L1.64 24.928V27H0.84ZM4.584 27L3.16 24.968H4.016L5.456 27H4.584ZM1.64 25.008L1.28 24.616H3C3.512 24.616 3.89867 24.5067 4.16 24.288C4.42667 24.064 4.56 23.752 4.56 23.352C4.56 22.952 4.42667 22.6427 4.16 22.424C3.89867 22.2053 3.512 22.096 3 22.096H1.28L1.64 21.696V25.008ZM8.4285 27.048C7.97517 27.048 7.57517 26.9547 7.2285 26.768C6.88717 26.5813 6.6205 26.3253 6.4285 26C6.24183 25.6747 6.1485 25.3013 6.1485 24.88C6.1485 24.4587 6.23917 24.0853 6.4205 23.76C6.60717 23.4347 6.8605 23.1813 7.1805 23C7.50583 22.8133 7.87117 22.72 8.2765 22.72C8.68717 22.72 9.04983 22.8107 9.3645 22.992C9.67917 23.1733 9.9245 23.4293 10.1005 23.76C10.2818 24.0853 10.3725 24.4667 10.3725 24.904C10.3725 24.936 10.3698 24.9733 10.3645 25.016C10.3645 25.0587 10.3618 25.0987 10.3565 25.136H6.7485V24.584H9.9565L9.6445 24.776C9.64983 24.504 9.59383 24.2613 9.4765 24.048C9.35917 23.8347 9.1965 23.6693 8.9885 23.552C8.78583 23.4293 8.5485 23.368 8.2765 23.368C8.00983 23.368 7.7725 23.4293 7.5645 23.552C7.3565 23.6693 7.19383 23.8373 7.0765 24.056C6.95917 24.2693 6.9005 24.5147 6.9005 24.792V24.92C6.9005 25.2027 6.9645 25.456 7.0925 25.68C7.22583 25.8987 7.40983 26.0693 7.6445 26.192C7.87917 26.3147 8.1485 26.376 8.4525 26.376C8.70317 26.376 8.92983 26.3333 9.1325 26.248C9.3405 26.1627 9.52183 26.0347 9.6765 25.864L10.1005 26.36C9.9085 26.584 9.6685 26.7547 9.3805 26.872C9.09783 26.9893 8.7805 27.048 8.4285 27.048ZM16.7429 22.72C17.0843 22.72 17.3856 22.7867 17.6469 22.92C17.9083 23.0533 18.1109 23.256 18.2549 23.528C18.4043 23.8 18.4789 24.144 18.4789 24.56V27H17.7109V24.648C17.7109 24.2373 17.6149 23.928 17.4229 23.72C17.2309 23.512 16.9616 23.408 16.6149 23.408C16.3589 23.408 16.1349 23.4613 15.9429 23.568C15.7509 23.6747 15.6016 23.832 15.4949 24.04C15.3936 24.248 15.3429 24.5067 15.3429 24.816V27H14.5749V24.648C14.5749 24.2373 14.4789 23.928 14.2869 23.72C14.1003 23.512 13.8309 23.408 13.4789 23.408C13.2283 23.408 13.0069 23.4613 12.8149 23.568C12.6229 23.6747 12.4736 23.832 12.3669 24.04C12.2603 24.248 12.2069 24.5067 12.2069 24.816V27H11.4389V22.76H12.1749V23.888L12.0549 23.6C12.1883 23.3227 12.3936 23.1067 12.6709 22.952C12.9483 22.7973 13.2709 22.72 13.6389 22.72C14.0443 22.72 14.3936 22.8213 14.6869 23.024C14.9803 23.2213 15.1723 23.5227 15.2629 23.928L14.9509 23.8C15.0789 23.4747 15.3029 23.2133 15.6229 23.016C15.9429 22.8187 16.3163 22.72 16.7429 22.72ZM21.7081 27.048C21.2814 27.048 20.9027 26.9547 20.5721 26.768C20.2414 26.5813 19.9801 26.3253 19.7881 26C19.5961 25.6693 19.5001 25.296 19.5001 24.88C19.5001 24.4587 19.5961 24.0853 19.7881 23.76C19.9801 23.4347 20.2414 23.1813 20.5721 23C20.9027 22.8133 21.2814 22.72 21.7081 22.72C22.1294 22.72 22.5054 22.8133 22.8361 23C23.1721 23.1813 23.4334 23.4347 23.6201 23.76C23.8121 24.08 23.9081 24.4533 23.9081 24.88C23.9081 25.3013 23.8121 25.6747 23.6201 26C23.4334 26.3253 23.1721 26.5813 22.8361 26.768C22.5054 26.9547 22.1294 27.048 21.7081 27.048ZM21.7081 26.376C21.9801 26.376 22.2227 26.3147 22.4361 26.192C22.6547 26.0693 22.8254 25.896 22.9481 25.672C23.0707 25.4427 23.1321 25.1787 23.1321 24.88C23.1321 24.576 23.0707 24.3147 22.9481 24.096C22.8254 23.872 22.6547 23.6987 22.4361 23.576C22.2227 23.4533 21.9801 23.392 21.7081 23.392C21.4361 23.392 21.1934 23.4533 20.9801 23.576C20.7667 23.6987 20.5961 23.872 20.4681 24.096C20.3401 24.3147 20.2761 24.576 20.2761 24.88C20.2761 25.1787 20.3401 25.4427 20.4681 25.672C20.5961 25.896 20.7667 26.0693 20.9801 26.192C21.1934 26.3147 21.4361 26.376 21.7081 26.376ZM25.965 27L24.109 22.76H24.909L26.557 26.6H26.173L27.853 22.76H28.605L26.749 27H25.965ZM31.0926 27.048C30.6392 27.048 30.2392 26.9547 29.8926 26.768C29.5512 26.5813 29.2846 26.3253 29.0926 26C28.9059 25.6747 28.8126 25.3013 28.8126 24.88C28.8126 24.4587 28.9032 24.0853 29.0846 23.76C29.2712 23.4347 29.5246 23.1813 29.8446 23C30.1699 22.8133 30.5352 22.72 30.9406 22.72C31.3512 22.72 31.7139 22.8107 32.0286 22.992C32.3432 23.1733 32.5886 23.4293 32.7646 23.76C32.9459 24.0853 33.0366 24.4667 33.0366 24.904C33.0366 24.936 33.0339 24.9733 33.0286 25.016C33.0286 25.0587 33.0259 25.0987 33.0206 25.136H29.4126V24.584H32.6206L32.3086 24.776C32.3139 24.504 32.2579 24.2613 32.1406 24.048C32.0232 23.8347 31.8606 23.6693 31.6526 23.552C31.4499 23.4293 31.2126 23.368 30.9406 23.368C30.6739 23.368 30.4366 23.4293 30.2286 23.552C30.0206 23.6693 29.8579 23.8373 29.7406 24.056C29.6232 24.2693 29.5646 24.5147 29.5646 24.792V24.92C29.5646 25.2027 29.6286 25.456 29.7566 25.68C29.8899 25.8987 30.0739 26.0693 30.3086 26.192C30.5432 26.3147 30.8126 26.376 31.1166 26.376C31.3672 26.376 31.5939 26.3333 31.7966 26.248C32.0046 26.1627 32.1859 26.0347 32.3406 25.864L32.7646 26.36C32.5726 26.584 32.3326 26.7547 32.0446 26.872C31.7619 26.9893 31.4446 27.048 31.0926 27.048Z" fill="#C1D2FF"/>
</svg>
