<svg width="84" height="85" viewBox="0 0 84 85" fill="none" xmlns="http://www.w3.org/2000/svg">
<path d="M42 79.25C34.7316 79.25 27.6263 77.0947 21.5828 73.0565C15.5393 69.0184 10.829 63.2788 8.04744 56.5636C5.26592 49.8484 4.53815 42.4592 5.95616 35.3304C7.37416 28.2016 10.8743 21.6534 16.0138 16.5138C21.1534 11.3742 27.7016 7.87415 34.8305 6.45614C41.9593 5.03814 49.3485 5.76591 56.0636 8.54743C62.7788 11.3289 68.5184 16.0393 72.5565 22.0828C76.5947 28.1263 78.75 35.2315 78.75 42.5C78.75 52.2467 74.8782 61.5942 67.9862 68.4862C61.0942 75.3781 51.7467 79.25 42 79.25ZM42 11C35.7699 11 29.6797 12.8474 24.4996 16.3087C19.3194 19.77 15.282 24.6896 12.8978 30.4455C10.5137 36.2013 9.88985 42.5349 11.1053 48.6453C12.3207 54.7557 15.3208 60.3685 19.7262 64.7739C24.1315 69.1792 29.7443 72.1793 35.8547 73.3947C41.9651 74.6102 48.2987 73.9864 54.0545 71.6022C59.8104 69.218 64.73 65.1806 68.1913 60.0005C71.6526 54.8203 73.5 48.7301 73.5 42.5C73.5 34.1457 70.1813 26.1335 64.2739 20.2261C58.3665 14.3187 50.3543 11 42 11Z" fill="white"/>
<path d="M54.0487 58.25L39.375 43.5763V18.875H44.625V41.3975L57.75 54.5488L54.0487 58.25Z" fill="white"/>
</svg>
