<svg width="16" height="18" viewBox="0 0 16 18" fill="none" xmlns="http://www.w3.org/2000/svg">
<path d="M7.99996 0.25C3.11413 4.23125 0.666626 7.67 0.666626 10.575C0.666626 14.9325 4.14996 17.75 7.99996 17.75C11.85 17.75 15.3333 14.9325 15.3333 10.575C15.3333 7.67 12.8858 4.23125 7.99996 0.25ZM4.17746 10.75C4.51663 10.75 4.79163 10.9775 4.85579 11.2925C5.23163 13.235 6.94579 13.9 8.19246 13.8037C8.58663 13.7862 8.91663 14.0837 8.91663 14.46C8.91663 14.81 8.62329 15.0987 8.25663 15.1162C6.30413 15.23 4.02163 14.1625 3.49913 11.5112C3.4832 11.4174 3.4888 11.3214 3.51556 11.2299C3.54231 11.1384 3.58958 11.0535 3.65408 10.9811C3.71859 10.9087 3.7988 10.8505 3.88917 10.8106C3.97953 10.7707 4.0779 10.75 4.17746 10.75Z" fill="#EC2A58"/>
</svg>
