<svg width="16" height="19" viewBox="0 0 16 19" fill="none" xmlns="http://www.w3.org/2000/svg">
<path d="M8.00001 0.75C3.11417 4.73125 0.666672 8.17 0.666672 11.075C0.666672 15.4325 4.15001 18.25 8.00001 18.25C11.85 18.25 15.3333 15.4325 15.3333 11.075C15.3333 8.17 12.8858 4.73125 8.00001 0.75ZM4.17751 11.25C4.51667 11.25 4.79167 11.4775 4.85584 11.7925C5.23167 13.735 6.94584 14.4 8.19251 14.3037C8.58667 14.2862 8.91667 14.5837 8.91667 14.96C8.91667 15.31 8.62334 15.5987 8.25667 15.6162C6.30417 15.73 4.02167 14.6625 3.49917 12.0112C3.48324 11.9174 3.48885 11.8214 3.5156 11.7299C3.54236 11.6384 3.58962 11.5535 3.65413 11.4811C3.71864 11.4087 3.79885 11.3505 3.88921 11.3106C3.97958 11.2707 4.07794 11.25 4.17751 11.25Z" fill="white"/>
</svg>
